<svg version="1.1" id="Layer_1" xmlns="http://www.w3.org/2000/svg" xmlns:xlink="http://www.w3.org/1999/xlink" x="0px" y="0px" width="100%" viewBox="0 0 1600 2656" enable-background="new 0 0 1600 2656" xml:space="preserve">
<defs>
    <linearGradient id="crimsonGradient" x1="0%" y1="0%" x2="0%" y2="100%">
        <stop offset="0%" style="stop-color:#E03E52;stop-opacity:1"/>
        <stop offset="100%" style="stop-color:#4A040E;stop-opacity:1"/>
    </linearGradient>
</defs>
<path fill="#FFFEFE" opacity="1.000000" stroke="none" d="&#xA;M1602.000000,1078.000000 &#xA;    C1602.000000,1605.333374 1602.000000,2131.666748 1602.000000,2658.000000 &#xA;    C1068.666626,2658.000000 535.333313,2658.000000 2.000000,2658.000000 &#xA;    C2.000000,1772.666626 2.000000,887.333313 2.000000,2.000000 &#xA;    C535.333313,2.000000 1068.666626,2.000000 1602.000000,2.000000 &#xA;    C1602.000000,360.333344 1602.000000,718.666687 1602.000000,1078.000000 &#xA;M294.601044,1869.779541 &#xA;    C294.753510,1872.534302 294.905975,1875.288940 294.629089,1879.862671 &#xA;    C294.584839,1977.975464 294.533813,2076.088135 294.538269,2174.200928 &#xA;    C294.538391,2176.465088 295.164398,2178.729492 295.129456,2181.659912 &#xA;    C295.012268,2182.191162 295.115997,2182.675293 294.733673,2184.457764 &#xA;    C294.969116,2187.932129 295.204590,2191.406250 295.119019,2195.576172 &#xA;    C295.006042,2196.118652 295.132568,2196.597900 294.719360,2198.625977 &#xA;    C294.944824,2212.690430 295.170288,2226.754639 295.103973,2241.617188 &#xA;    C295.008148,2242.199463 295.100677,2242.750000 294.688568,2244.272949 &#xA;    C294.934875,2245.822266 295.181183,2247.371826 295.114838,2249.618408 &#xA;    C295.009308,2250.151611 295.117493,2250.637207 294.767761,2251.892578 &#xA;    C294.979797,2252.862549 295.191833,2253.832520 295.101868,2255.796875 &#xA;    C295.196075,2256.476074 295.290314,2257.155518 294.741119,2258.955078 &#xA;    C296.996216,2264.824463 299.251343,2270.693604 301.897827,2277.959717 &#xA;    C319.567841,2321.052246 337.134583,2364.187256 354.933502,2407.226562 &#xA;    C378.583618,2464.414795 402.394958,2521.535889 426.188721,2578.664551 &#xA;    C429.768799,2587.260254 433.237976,2595.940186 437.486115,2604.207275 &#xA;    C440.773590,2610.604736 444.981079,2610.423096 448.365753,2604.166748 &#xA;    C450.573914,2600.085205 452.211975,2595.687256 453.995087,2591.385254 &#xA;    C474.376709,2542.212891 494.674683,2493.005371 515.119202,2443.858887 &#xA;    C539.146484,2386.100586 563.258423,2328.376953 587.442200,2270.683838 &#xA;    C590.334778,2263.783447 591.743042,2256.845215 591.447205,2249.336670 &#xA;    C591.028259,2238.704590 591.133301,2228.049072 591.124878,2217.403564 &#xA;    C591.074707,2153.812500 590.979126,2090.221436 591.046936,2026.630493 &#xA;    C591.130432,1948.382812 591.502930,1870.135254 591.488953,1791.887695 &#xA;    C591.471008,1691.323364 591.142273,1590.759155 591.045288,1490.194824 &#xA;    C590.982666,1425.205566 591.126770,1360.216187 591.123047,1295.226807 &#xA;    C591.115417,1160.925171 591.010437,1026.623535 591.065002,892.321960 &#xA;    C591.095581,817.072937 591.379211,741.824097 591.510681,666.575134 &#xA;    C591.528503,656.359009 590.196533,654.378296 579.788879,652.886841 &#xA;    C561.697083,650.294373 543.515259,648.330322 525.234192,645.612488 &#xA;    C525.234192,645.612488 524.734070,645.536865 524.734070,645.536865 &#xA;    C524.734070,645.536865 524.618164,646.029419 523.065063,645.483032 &#xA;    C521.433228,645.294983 519.801392,645.106934 516.628906,644.046997 &#xA;    C511.466583,643.568726 506.312561,642.895142 501.139252,642.674866 &#xA;    C497.097015,642.502747 492.635498,641.484070 489.974579,645.978455 &#xA;    C489.974579,645.978455 489.798004,645.761353 488.391968,646.468262 &#xA;    C487.759277,651.034851 486.679047,655.591064 486.572327,660.169922 &#xA;    C486.138214,678.800110 486.000427,697.437195 485.757599,716.071777 &#xA;    C485.632690,725.657959 485.516663,735.244202 485.106506,745.572998 &#xA;    C485.007782,746.125000 485.110931,746.636292 484.724731,748.448730 &#xA;    C484.937592,751.864197 485.150452,755.279663 485.086670,760.021790 &#xA;    C485.170441,761.820068 485.254181,763.618286 484.741364,766.058655 &#xA;    C484.702972,766.346130 484.567291,766.664307 484.646362,766.914673 &#xA;    C484.810669,767.434814 485.088806,767.919067 485.077087,769.929810 &#xA;    C485.131195,772.476929 485.185272,775.023987 484.432861,779.038086 &#xA;    C484.363434,789.395813 484.293976,799.753540 483.975708,811.869202 &#xA;    C482.649567,853.791138 481.200226,895.709595 480.046692,937.636292 &#xA;    C479.424011,960.268982 479.364105,982.916687 478.941315,1005.555603 &#xA;    C478.674011,1019.868408 478.232422,1034.178223 477.822266,1048.488037 &#xA;    C476.887482,1081.101440 475.886353,1113.713135 474.986847,1146.327393 &#xA;    C474.481873,1164.637695 474.183502,1182.953613 473.690979,1201.264160 &#xA;    C472.491272,1245.866699 471.225739,1290.467285 470.000183,1335.069214 &#xA;    C469.277771,1361.360840 468.587585,1387.653442 467.871490,1413.945435 &#xA;    C466.584686,1461.191650 465.280853,1508.437500 464.009186,1555.684204 &#xA;    C463.865753,1561.012207 463.980957,1566.347778 463.810669,1571.674438 &#xA;    C462.662415,1607.590454 461.361389,1643.501709 460.322113,1679.420776 &#xA;    C459.321136,1714.014771 458.595367,1748.616699 457.713257,1783.214233 &#xA;    C456.492157,1831.108521 455.251068,1879.002441 453.988861,1926.895630 &#xA;    C453.655823,1939.533325 453.234344,1952.168701 452.817688,1964.803955 &#xA;    C451.545624,2003.379028 450.219574,2041.952393 448.984375,2080.528564 &#xA;    C447.919342,2113.790283 447.011292,2147.057129 445.901306,2180.317383 &#xA;    C445.569000,2190.274414 444.790894,2200.216553 442.962280,2210.148438 &#xA;    C442.544037,2210.154785 442.125763,2210.161133 441.167053,2208.376465 &#xA;    C439.797241,2170.177002 438.376312,2131.979004 437.071350,2093.777344 &#xA;    C435.629028,2051.553467 434.208038,2009.328613 432.942291,1967.099243 &#xA;    C432.174713,1941.491211 431.740723,1915.873291 431.115082,1890.260864 &#xA;    C430.716797,1873.955200 430.279510,1857.650391 429.794495,1841.347168 &#xA;    C428.221649,1788.477051 426.545929,1735.609863 425.063538,1682.737305 &#xA;    C424.475647,1661.769409 424.460876,1640.785645 423.865112,1619.818115 &#xA;    C423.449493,1605.192505 422.489441,1590.582520 422.230377,1574.152466 &#xA;    C421.888641,1562.818848 421.546906,1551.485352 421.147034,1538.490234 &#xA;    C420.731415,1527.638550 420.315796,1516.786743 420.332397,1504.721069 &#xA;    C420.145935,1501.162109 419.959473,1497.603271 419.972992,1492.320801 &#xA;    C419.876038,1488.856812 419.779053,1485.392822 420.018402,1480.982056 &#xA;    C419.876709,1480.678589 419.734985,1480.375122 419.709839,1478.378296 &#xA;    C419.358521,1472.290894 419.007202,1466.203613 419.365173,1458.632080 &#xA;    C419.418213,1454.652466 419.610107,1450.669067 419.502808,1446.693848 &#xA;    C418.438873,1407.269531 417.318726,1367.846924 416.228485,1328.423218 &#xA;    C415.522644,1302.900146 414.862976,1277.375732 414.112549,1251.853882 &#xA;    C414.035706,1249.240356 413.477966,1246.640991 413.412354,1242.705078 &#xA;    C413.300995,1241.812988 413.189636,1240.921021 413.664276,1238.236450 &#xA;    C412.558441,1200.298096 411.373169,1162.361694 410.372009,1124.420654 &#xA;    C409.572937,1094.137573 409.079041,1063.846436 408.283661,1033.563232 &#xA;    C407.970093,1021.626160 407.206055,1009.700928 406.917511,996.242371 &#xA;    C406.827606,994.181641 406.737732,992.120850 407.331268,988.625732 &#xA;    C406.813843,979.036499 406.296387,969.447266 405.973755,958.286560 &#xA;    C405.906647,956.179565 405.839569,954.072510 406.186127,950.206055 &#xA;    C405.669708,943.235596 405.153320,936.265076 404.913971,927.745667 &#xA;    C404.821655,924.085632 404.729309,920.425598 405.281738,915.958618 &#xA;    C405.054321,915.005249 404.826935,914.051819 404.904266,911.895630 &#xA;    C404.818756,910.665100 404.733276,909.434631 405.354431,906.700806 &#xA;    C404.640320,891.171265 403.926178,875.641785 403.455078,858.550842 &#xA;    C403.315491,856.455078 403.175903,854.359314 403.662476,850.557312 &#xA;    C403.326233,844.318848 402.990021,838.080444 402.912811,830.629211 &#xA;    C402.825806,829.811646 402.738800,828.994141 403.290802,826.677795 &#xA;    C402.295715,779.883179 401.303223,733.088440 400.303711,686.293945 &#xA;    C400.062592,675.006714 400.016876,663.709290 399.459717,652.437378 &#xA;    C399.143524,646.040649 395.402191,642.424744 389.299652,642.720154 &#xA;    C383.429413,643.004211 377.608887,644.315796 370.496063,645.088745 &#xA;    C369.671326,645.260254 368.846619,645.431763 366.879944,645.022888 &#xA;    C362.525818,645.807800 358.171661,646.592712 352.351471,647.181458 &#xA;    C350.914886,647.490173 349.478333,647.798950 346.300140,647.757324 &#xA;    C333.485413,649.549744 320.614899,651.019775 307.871521,653.224548 &#xA;    C294.911438,655.466797 294.301361,656.671814 294.321228,669.393799 &#xA;    C294.362732,696.000061 294.226593,722.606934 294.342072,749.212708 &#xA;    C294.418518,766.821167 294.805389,784.428345 294.648285,803.589722 &#xA;    C294.766113,805.713501 294.883942,807.837341 294.538879,811.559753 &#xA;    C294.728058,816.924438 294.917236,822.289062 294.697235,829.072998 &#xA;    C294.830902,832.034668 294.964569,834.996277 294.601654,839.773743 &#xA;    C294.558319,855.989502 294.426300,872.205566 294.496338,888.420837 &#xA;    C294.567749,904.955566 294.837799,921.489380 294.591705,939.845642 &#xA;    C294.555450,1052.814209 294.516754,1165.782837 294.506714,1278.751465 &#xA;    C294.506592,1280.396851 294.864288,1282.042236 294.671570,1285.208862 &#xA;    C294.799591,1286.238525 294.927643,1287.268311 294.591064,1290.074585 &#xA;    C294.845276,1304.095703 295.099487,1318.116699 295.083313,1333.550049 &#xA;    C295.173370,1334.979248 295.263428,1336.408569 294.636414,1339.327271 &#xA;    C294.583984,1350.319702 294.402527,1361.313599 294.518707,1372.304321 &#xA;    C294.616791,1381.579346 295.060272,1390.850708 295.090088,1401.231689 &#xA;    C295.192444,1401.977173 295.294800,1402.722534 295.278625,1403.451538 &#xA;    C295.278625,1403.451538 295.194946,1403.537720 294.691528,1404.214233 &#xA;    C294.517944,1404.810181 294.639893,1405.337769 294.675140,1407.238281 &#xA;    C294.803375,1408.215576 294.931610,1409.192749 294.717621,1411.000732 &#xA;    C294.717621,1411.000732 295.059906,1411.831299 294.673706,1413.320801 &#xA;    C294.801483,1414.330688 294.929230,1415.340454 294.596436,1418.121338 &#xA;    C294.556213,1470.889404 294.506622,1523.657593 294.513000,1576.425659 &#xA;    C294.513245,1578.361450 295.061981,1580.297363 295.089081,1583.412231 &#xA;    C295.177094,1584.208374 295.265106,1585.004395 294.643280,1587.304443 &#xA;    C294.590759,1621.340210 294.526337,1655.375977 294.522858,1689.411743 &#xA;    C294.522675,1691.009277 295.064606,1692.606934 295.088837,1695.396118 &#xA;    C295.177124,1696.200317 295.265381,1697.004517 294.642456,1699.312134 &#xA;    C294.778625,1726.113403 294.914764,1752.914795 294.665985,1781.205200 &#xA;    C294.795227,1782.213623 294.924438,1783.222168 294.596771,1786.018555 &#xA;    C294.747803,1811.903320 294.898834,1837.788086 294.667816,1865.159058 &#xA;    C294.796326,1866.165283 294.924835,1867.171631 294.601044,1869.779541 &#xA;M379.449188,238.014374 &#xA;    C380.296051,250.958069 381.442474,263.890320 381.936920,276.847473 &#xA;    C383.881348,327.799713 381.923798,378.644196 376.852203,429.360535 &#xA;    C374.008118,457.801331 370.771851,486.203796 367.568146,514.607300 &#xA;    C365.985107,528.642395 364.102356,530.191040 350.267975,530.181580 &#xA;    C314.290131,530.156982 278.312286,530.132263 242.334457,530.096252 &#xA;    C204.697617,530.058533 167.059586,530.154724 129.424835,529.851196 &#xA;    C120.799370,529.781616 114.518234,532.300537 111.121010,540.552490 &#xA;    C110.491959,542.080444 109.425560,543.423462 108.731728,544.930420 &#xA;    C96.576424,571.331177 86.908920,598.541199 82.537384,627.397888 &#xA;    C81.345245,635.267334 80.402992,643.224182 80.127922,651.167908 &#xA;    C79.894028,657.922424 82.500618,659.725708 88.825211,657.577026 &#xA;    C96.060425,655.118958 103.127945,652.139404 110.180603,649.177490 &#xA;    C126.125870,642.481018 141.606628,634.370850 158.009552,629.130981 &#xA;    C202.092682,615.048828 247.042389,603.907654 292.663086,596.198181 &#xA;    C347.852173,586.871765 403.513397,582.852417 459.592316,583.793640 &#xA;    C494.921600,584.386658 530.083984,586.111023 565.033752,591.178894 &#xA;    C604.915283,596.961792 644.087158,606.185852 683.173279,615.888916 &#xA;    C717.896179,624.508728 751.110229,637.116882 783.610779,651.835327 &#xA;    C787.844055,653.752380 792.053833,655.796875 796.446838,657.267761 &#xA;    C802.968445,659.451294 806.025635,657.451172 806.627136,650.758911 &#xA;    C806.923096,647.466125 806.719727,644.097046 806.437439,640.788513 &#xA;    C803.427856,605.511108 791.902527,572.659485 777.992798,540.449890 &#xA;    C774.630737,532.664490 769.486206,529.815491 760.947266,529.848450 &#xA;    C690.975830,530.118774 621.002869,529.992065 551.030334,529.996094 &#xA;    C543.701233,529.996521 536.369690,529.960938 529.043823,530.134155 &#xA;    C524.226685,530.247986 521.576843,527.774475 520.426392,523.454895 &#xA;    C519.744202,520.893738 519.349792,518.237793 519.035828,515.599487 &#xA;    C514.991638,481.609955 510.735840,447.643005 507.038666,413.615448 &#xA;    C503.261566,378.852631 501.386902,343.963226 502.027557,308.975311 &#xA;    C502.252991,296.665497 502.532837,284.352631 503.068878,272.053375 &#xA;    C504.314972,243.464081 507.469055,215.084991 513.084412,187.006866 &#xA;    C517.944336,162.705902 526.305969,139.594238 537.535156,117.562866 &#xA;    C541.890198,109.018478 541.102722,102.499298 534.373413,95.172913 &#xA;    C516.845398,76.089684 495.707367,62.521816 471.918549,53.223782 &#xA;    C440.471466,40.932480 448.537170,40.877625 414.984894,52.665440 &#xA;    C390.574249,61.241547 370.384247,75.999535 352.383698,94.288216 &#xA;    C344.821350,101.971581 343.139160,109.548805 348.178497,119.362930 &#xA;    C353.325409,129.386383 357.917816,139.781860 361.745667,150.378326 &#xA;    C371.757751,178.094116 376.573883,206.938690 379.449188,238.014374 &#xA;M1545.637573,1754.833252 &#xA;    C1547.190918,1750.093018 1549.002441,1745.419312 1550.241577,1740.598267 &#xA;    C1552.531982,1731.687012 1550.317505,1728.590210 1541.470825,1728.389038 &#xA;    C1527.824219,1728.078613 1514.135254,1728.590576 1500.532959,1727.702148 &#xA;    C1488.957397,1726.946289 1483.373413,1732.259766 1478.673096,1742.286499 &#xA;    C1466.397095,1768.473755 1453.794434,1794.576538 1439.814331,1819.880249 &#xA;    C1418.145874,1859.099976 1390.165161,1893.937744 1360.354370,1927.179199 &#xA;    C1326.860474,1964.527344 1286.381104,1991.841675 1238.763794,2008.278442 &#xA;    C1193.571899,2023.877930 1146.683228,2029.453491 1099.317627,2029.773193 &#xA;    C992.046692,2030.497192 884.767151,2029.834961 777.492676,2030.206055 &#xA;    C742.434875,2030.327271 707.670288,2028.886353 673.471375,2020.440674 &#xA;    C669.972534,2019.576538 666.231628,2019.258301 662.625366,2019.375244 &#xA;    C658.257019,2019.516602 654.902222,2021.388672 654.873352,2026.588501 &#xA;    C654.862305,2028.580933 654.464600,2030.571533 654.456848,2032.563843 &#xA;    C654.348572,2060.527100 654.277405,2088.490234 654.196655,2116.453613 &#xA;    C654.193787,2117.452148 654.116333,2118.455811 654.192566,2119.447998 &#xA;    C654.752502,2126.734619 657.528137,2129.591553 664.766113,2129.945557 &#xA;    C669.088013,2130.156982 673.427917,2130.005615 677.759766,2130.005615 &#xA;    C834.367981,2129.998047 990.976257,2129.987549 1147.584473,2129.980469 &#xA;    C1236.216797,2129.976562 1324.848999,2129.989014 1413.481323,2129.963379 &#xA;    C1427.766846,2129.959229 1429.947632,2128.186035 1433.938110,2114.719482 &#xA;    C1437.813965,2101.640381 1441.758057,2088.580566 1445.829346,2075.561279 &#xA;    C1463.005371,2020.635864 1480.332764,1965.757568 1497.426392,1910.806519 &#xA;    C1513.432983,1859.350586 1529.214600,1807.824829 1545.637573,1754.833252 &#xA;M1270.061890,1552.751099 &#xA;    C1270.043579,1392.125732 1270.021118,1231.500366 1270.020386,1070.875000 &#xA;    C1270.020386,1063.213013 1270.264038,1055.551392 1270.303589,1047.889038 &#xA;    C1270.354492,1038.040649 1268.498413,1035.953857 1258.945068,1035.812134 &#xA;    C1246.302490,1035.624512 1233.654663,1035.576904 1221.011597,1035.703857 &#xA;    C1212.847534,1035.785645 1210.555176,1037.954102 1209.560791,1046.255493 &#xA;    C1208.848267,1052.203125 1208.554688,1058.200195 1208.046387,1064.172974 &#xA;    C1204.713257,1103.329956 1196.373779,1141.134033 1177.488403,1176.028076 &#xA;    C1165.565918,1198.057007 1148.409912,1214.847168 1125.804077,1225.659180 &#xA;    C1084.850464,1245.246460 1041.348022,1253.962891 996.170532,1254.202759 &#xA;    C930.554199,1254.550903 864.934998,1254.375244 799.317017,1254.410767 &#xA;    C755.341492,1254.434570 711.365906,1254.385376 667.390564,1254.485962 &#xA;    C656.326111,1254.511230 654.019104,1257.014893 654.002563,1268.087769 &#xA;    C653.967651,1291.399658 653.991516,1314.711548 653.992554,1338.023438 &#xA;    C653.992615,1340.022949 653.855835,1342.035767 654.035767,1344.019409 &#xA;    C654.563293,1349.836914 657.717102,1353.280029 663.285339,1353.907104 &#xA;    C665.919617,1354.203979 668.611328,1354.005615 671.277039,1354.005737 &#xA;    C760.256714,1354.008423 849.236816,1353.851929 938.215820,1354.099731 &#xA;    C966.162781,1354.177612 994.132141,1354.810669 1022.045044,1356.151245 &#xA;    C1051.795288,1357.579712 1080.878052,1363.361328 1108.351807,1375.106934 &#xA;    C1136.834473,1387.283936 1160.760010,1405.110962 1175.828735,1433.231079 &#xA;    C1191.451416,1462.385010 1198.954590,1494.060181 1205.134155,1526.111572 &#xA;    C1207.265747,1537.167480 1207.442505,1548.586182 1208.984619,1559.774170 &#xA;    C1210.331055,1569.542725 1213.182373,1571.688843 1222.691650,1571.736084 &#xA;    C1232.682739,1571.785645 1242.677368,1571.758423 1252.663818,1572.018555 &#xA;    C1269.693726,1572.461670 1271.128662,1569.007202 1270.061890,1552.751099 &#xA;M1345.956177,787.165161 &#xA;    C1349.318115,798.304260 1353.128662,809.331299 1355.944824,820.606750 &#xA;    C1361.179932,841.567200 1365.829956,862.673706 1370.734985,883.716736 &#xA;    C1372.833496,892.719238 1374.307373,893.944641 1383.635498,893.991272 &#xA;    C1395.628418,894.051147 1407.622681,894.075500 1419.614990,893.968140 &#xA;    C1429.640991,893.878418 1432.178467,891.621521 1432.079956,881.647217 &#xA;    C1431.935303,867.011719 1431.553467,852.363708 1430.709595,837.753479 &#xA;    C1429.386230,814.844910 1427.691895,791.956055 1425.975220,769.072327 &#xA;    C1423.512573,736.241760 1420.774902,703.431702 1418.365479,670.597412 &#xA;    C1416.102661,639.761292 1414.076050,608.907654 1412.021851,578.056580 &#xA;    C1411.181885,565.442688 1410.664307,552.806702 1409.766113,540.197449 &#xA;    C1409.235718,532.750610 1407.349487,530.688477 1401.312378,530.045471 &#xA;    C1399.335327,529.834900 1397.318115,529.993652 1395.319336,529.993652 &#xA;    C1216.112305,529.992859 1036.905273,529.992737 857.698181,529.995911 &#xA;    C855.366577,529.995972 853.003662,529.803223 850.709351,530.107605 &#xA;    C844.214722,530.968933 842.097656,534.142090 843.674255,540.442261 &#xA;    C844.076172,542.048401 844.875854,543.551453 845.336365,545.146973 &#xA;    C851.419128,566.222046 859.275940,586.994385 862.981689,608.481812 &#xA;    C866.105896,626.597412 869.892334,624.808960 883.670959,625.166931 &#xA;    C884.003601,625.175598 884.336975,625.146545 884.670044,625.145813 &#xA;    C945.274353,625.006104 1005.885803,625.388245 1066.480835,624.563782 &#xA;    C1114.762939,623.906921 1162.096436,629.121094 1208.575806,642.299622 &#xA;    C1246.663818,653.099060 1277.767700,674.157410 1302.371460,705.034851 &#xA;    C1321.685181,729.273254 1334.996094,756.715820 1345.956177,787.165161 &#xA;M180.012863,2063.415527 &#xA;    C150.727234,2070.860596 120.759315,2071.208496 90.833176,2071.970947 &#xA;    C86.506477,2072.081055 82.139862,2071.718994 77.856964,2072.180664 &#xA;    C72.250572,2072.784668 69.181602,2075.678467 69.056740,2081.172363 &#xA;    C68.754173,2094.486084 68.888840,2107.812256 69.015274,2121.131592 &#xA;    C69.060478,2125.894043 72.046127,2128.344971 76.564156,2128.886475 &#xA;    C78.866600,2129.162598 81.219017,2129.026123 83.549004,2129.067871 &#xA;    C115.837685,2129.645508 148.125748,2130.262695 180.415421,2130.778809 &#xA;    C193.399307,2130.986328 206.387863,2131.110596 219.372299,2131.011719 &#xA;    C229.914108,2130.931641 232.036896,2128.658691 232.539978,2118.011475 &#xA;    C232.587112,2117.014160 232.577499,2116.013184 232.567825,2115.014160 &#xA;    C232.387436,2096.369873 232.254028,2077.725098 231.974045,2059.082275 &#xA;    C231.921570,2055.587891 231.279480,2052.102295 230.747467,2047.084839 &#xA;    C213.499466,2052.640625 197.544128,2057.780029 180.012863,2063.415527 &#xA;z"/>
<path fill="url(#crimsonGradient)" opacity="1.000000" stroke="none" d="&#xA;M295.353485,1337.837769 &#xA;    C295.263428,1336.408569 295.173370,1334.979248 295.431213,1332.961182 &#xA;    C295.779144,1332.372437 296.157928,1332.067383 296.614746,1331.384033 &#xA;    C296.787262,1318.350952 296.503021,1306.001099 296.254150,1293.324707 &#xA;    C296.289551,1292.998169 296.225555,1292.344360 296.613281,1291.662476 &#xA;    C296.738831,1285.885864 296.476685,1280.791260 296.434784,1274.960693 &#xA;    C296.736450,1268.299316 296.838715,1262.373901 296.895660,1256.447998 &#xA;    C297.140717,1230.940796 297.496582,1205.434082 297.579346,1179.926392 &#xA;    C297.696655,1143.776611 297.610199,1107.626221 297.608795,1071.476074 &#xA;    C297.607178,1030.605103 297.628571,989.734009 297.556702,948.863098 &#xA;    C297.550323,945.243774 296.929077,941.625488 296.937805,937.118103 &#xA;    C297.389404,906.827454 297.521088,877.425415 297.569702,848.023254 &#xA;    C297.575104,844.741760 297.108704,841.459412 297.192749,837.343750 &#xA;    C297.314148,833.572998 297.103973,830.636047 297.107117,826.847900 &#xA;    C297.193817,820.728699 297.067200,815.460571 297.248657,809.385376 &#xA;    C297.337433,806.323364 297.118195,804.068481 297.078979,801.099487 &#xA;    C297.176331,790.797729 297.023865,781.210083 297.023499,771.622498 &#xA;    C297.022156,737.393921 297.143616,703.165222 297.049988,668.936951 &#xA;    C297.028320,661.008240 298.954224,657.594849 306.407959,656.090027 &#xA;    C312.245209,654.911499 318.276367,654.702454 324.122986,653.559509 &#xA;    C332.144623,651.991455 340.073273,649.947632 348.041748,648.107727 &#xA;    C349.478333,647.798950 350.914886,647.490173 353.523193,647.772156 &#xA;    C359.137207,647.442993 363.579559,646.523193 368.021881,645.603333 &#xA;    C368.846619,645.431763 369.671326,645.260254 371.583221,645.670898 &#xA;    C377.951874,646.104553 383.253052,645.606445 388.509460,645.902832 &#xA;    C394.100555,646.218079 397.063446,649.451416 397.179779,654.846741 &#xA;    C397.575745,673.212341 397.812531,691.581360 398.144592,709.948425 &#xA;    C398.808197,746.651123 399.445282,783.354553 400.272095,820.053650 &#xA;    C400.333496,822.777771 401.825104,825.469666 402.651794,828.176575 &#xA;    C402.738800,828.994141 402.825806,829.811646 402.252258,831.568176 &#xA;    C401.082916,839.165039 398.668823,845.962219 403.036316,852.263550 &#xA;    C403.175903,854.359314 403.315491,856.455078 402.896851,860.004761 &#xA;    C402.381866,875.633118 402.363861,889.808472 402.562897,903.980774 &#xA;    C402.582825,905.398071 403.921265,906.796753 404.647766,908.204102 &#xA;    C404.733276,909.434631 404.818756,910.665100 404.549561,913.417297 &#xA;    C404.342194,915.547852 404.489594,916.156738 404.636963,916.765564 &#xA;    C404.729309,920.425598 404.821655,924.085632 404.450623,929.229492 &#xA;    C404.582336,937.797363 405.177429,944.881409 405.772522,951.965515 &#xA;    C405.839569,954.072510 405.906647,956.179565 405.357666,959.727844 &#xA;    C404.602966,968.742554 404.293793,976.319153 404.437286,983.887207 &#xA;    C404.476532,985.958130 405.873810,988.003174 406.647827,990.060120 &#xA;    C406.737732,992.120850 406.827606,994.181641 406.175537,997.553345 &#xA;    C405.115906,1003.458557 404.365417,1008.070496 404.552002,1012.644226 &#xA;    C405.619507,1038.811523 407.313446,1064.958862 408.029724,1091.133789 &#xA;    C409.102356,1130.332520 409.542389,1169.548584 410.247650,1208.757202 &#xA;    C410.307495,1212.083984 410.093658,1215.436646 410.433838,1218.733154 &#xA;    C411.168060,1225.846924 412.179962,1232.932129 413.078247,1240.028931 &#xA;    C413.189636,1240.921021 413.300995,1241.812988 412.822205,1244.048584 &#xA;    C412.286652,1264.929810 411.959930,1284.478027 412.489624,1304.002808 &#xA;    C413.196899,1330.075317 414.837219,1356.122192 415.574402,1382.194336 &#xA;    C416.212280,1404.754639 416.059509,1427.336548 416.491760,1449.904419 &#xA;    C416.557190,1453.320923 417.902557,1456.712891 418.655884,1460.116211 &#xA;    C419.007202,1466.203613 419.358521,1472.290894 419.330597,1479.370605 &#xA;    C419.194946,1480.884888 419.438507,1481.406860 419.682068,1481.928833 &#xA;    C419.779053,1485.392822 419.876038,1488.856812 419.405579,1493.717041 &#xA;    C419.192200,1498.720581 419.546173,1502.327881 419.900177,1505.935059 &#xA;    C420.315796,1516.786743 420.731415,1527.638550 420.766602,1540.005859 &#xA;    C420.310089,1548.490967 420.022491,1555.466797 420.233551,1562.427368 &#xA;    C420.370728,1566.951538 421.234406,1571.453613 421.772614,1575.965576 &#xA;    C422.489441,1590.582520 423.449493,1605.192505 423.865112,1619.818115 &#xA;    C424.460876,1640.785645 424.475647,1661.769409 425.063538,1682.737305 &#xA;    C426.545929,1735.609863 428.221649,1788.477051 429.794495,1841.347168 &#xA;    C430.279510,1857.650391 430.716797,1873.955200 431.115082,1890.260864 &#xA;    C431.740723,1915.873291 432.174713,1941.491211 432.942291,1967.099243 &#xA;    C434.208038,2009.328613 435.629028,2051.553467 437.071350,2093.777344 &#xA;    C438.376312,2131.979004 439.797241,2170.177002 441.360291,2210.125000 &#xA;    C441.786682,2215.870850 442.019836,2219.868164 442.048584,2224.739746 &#xA;    C441.844147,2230.458496 441.844147,2235.303223 441.844147,2240.147949 &#xA;    C442.478607,2240.134521 443.113037,2240.121094 443.747498,2240.107666 &#xA;    C443.747498,2234.693359 443.747498,2229.278809 443.891235,2223.014893 &#xA;    C444.095673,2218.165283 444.156342,2214.165527 444.217010,2210.165527 &#xA;    C444.790894,2200.216553 445.569000,2190.274414 445.901306,2180.317383 &#xA;    C447.011292,2147.057129 447.919342,2113.790283 448.984375,2080.528564 &#xA;    C450.219574,2041.952393 451.545624,2003.379028 452.817688,1964.803955 &#xA;    C453.234344,1952.168701 453.655823,1939.533325 453.988861,1926.895630 &#xA;    C455.251068,1879.002441 456.492157,1831.108521 457.713257,1783.214233 &#xA;    C458.595367,1748.616699 459.321136,1714.014771 460.322113,1679.420776 &#xA;    C461.361389,1643.501709 462.662415,1607.590454 463.810669,1571.674438 &#xA;    C463.980957,1566.347778 463.865753,1561.012207 464.009186,1555.684204 &#xA;    C465.280853,1508.437500 466.584686,1461.191650 467.871490,1413.945435 &#xA;    C468.587585,1387.653442 469.277771,1361.360840 470.000183,1335.069214 &#xA;    C471.225739,1290.467285 472.491272,1245.866699 473.690979,1201.264160 &#xA;    C474.183502,1182.953613 474.481873,1164.637695 474.986847,1146.327393 &#xA;    C475.886353,1113.713135 476.887482,1081.101440 477.822266,1048.488037 &#xA;    C478.232422,1034.178223 478.674011,1019.868408 478.941315,1005.555603 &#xA;    C479.364105,982.916687 479.424011,960.268982 480.046692,937.636292 &#xA;    C481.200226,895.709595 482.649567,853.791138 484.623474,810.339111 &#xA;    C485.260620,798.396423 485.250000,787.983765 485.239380,777.571106 &#xA;    C485.185272,775.023987 485.131195,772.476929 485.410553,768.427002 &#xA;    C485.608673,766.421631 485.473297,765.919067 485.337921,765.416565 &#xA;    C485.254181,763.618286 485.170441,761.820068 485.553162,758.435425 &#xA;    C485.818420,753.601624 485.617188,750.354248 485.415985,747.106873 &#xA;    C485.110931,746.636292 485.007782,746.125000 485.586121,744.354675 &#xA;    C487.206787,724.149475 488.608856,705.173462 489.400269,686.172058 &#xA;    C489.960602,672.719666 489.694946,659.232788 489.798004,645.761353 &#xA;    C489.798004,645.761353 489.974579,645.978455 490.660126,645.884094 &#xA;    C495.476715,645.668335 499.608124,645.557556 503.738739,645.422791 &#xA;    C508.549377,645.265808 513.359314,645.087769 518.169556,644.918823 &#xA;    C519.801392,645.106934 521.433228,645.294983 523.926147,645.920349 &#xA;    C524.787292,646.357666 525.371155,646.102844 525.371155,646.102844 &#xA;    C543.515259,648.330322 561.697083,650.294373 579.788879,652.886841 &#xA;    C590.196533,654.378296 591.528503,656.359009 591.510681,666.575134 &#xA;    C591.379211,741.824097 591.095581,817.072937 591.065002,892.321960 &#xA;    C591.010437,1026.623535 591.115417,1160.925171 591.123047,1295.226807 &#xA;    C591.126770,1360.216187 590.982666,1425.205566 591.045288,1490.194824 &#xA;    C591.142273,1590.759155 591.471008,1691.323364 591.488953,1791.887695 &#xA;    C591.502930,1870.135254 591.130432,1948.382812 591.046936,2026.630493 &#xA;    C590.979126,2090.221436 591.074707,2153.812500 591.124878,2217.403564 &#xA;    C591.133301,2228.049072 591.028259,2238.704590 591.447205,2249.336670 &#xA;    C591.743042,2256.845215 590.334778,2263.783447 587.442200,2270.683838 &#xA;    C563.258423,2328.376953 539.146484,2386.100586 515.119202,2443.858887 &#xA;    C494.674683,2493.005371 474.376709,2542.212891 453.995087,2591.385254 &#xA;    C452.211975,2595.687256 450.573914,2600.085205 448.365753,2604.166748 &#xA;    C444.981079,2610.423096 440.773590,2610.604736 437.486115,2604.207275 &#xA;    C433.237976,2595.940186 429.768799,2587.260254 426.188721,2578.664551 &#xA;    C402.394958,2521.535889 378.583618,2464.414795 354.933502,2407.226562 &#xA;    C337.134583,2364.187256 319.567841,2321.052246 301.869202,2276.470947 &#xA;    C299.688507,2269.266357 297.536499,2263.550537 295.384491,2257.834717 &#xA;    C295.290314,2257.155518 295.196075,2256.476074 295.469391,2254.369629 &#xA;    C295.704407,2252.319824 295.571899,2251.697754 295.439392,2251.075439 &#xA;    C295.117493,2250.637207 295.009308,2250.151611 295.541046,2248.336914 &#xA;    C295.772034,2245.792969 295.576813,2244.531006 295.381592,2243.268799 &#xA;    C295.100677,2242.750000 295.008148,2242.199463 295.539398,2240.324463 &#xA;    C295.816071,2225.025879 295.657318,2211.020020 295.498566,2197.014160 &#xA;    C295.132568,2196.597900 295.006042,2196.118652 295.578705,2194.272949 &#xA;    C295.839111,2189.684082 295.639862,2186.397949 295.440582,2183.112061 &#xA;    C295.115997,2182.675293 295.012268,2182.191162 295.607452,2180.342529 &#xA;    C296.160583,2176.032471 296.301056,2173.039795 296.300995,2170.047119 &#xA;    C296.299683,2126.836914 296.274750,2083.626709 296.267242,2040.416382 &#xA;    C296.265411,2029.847534 296.304718,2019.278687 296.329803,2008.709839 &#xA;    C296.331360,2008.044922 296.381348,2007.380249 296.395660,2006.715210 &#xA;    C296.823639,1986.828125 297.347076,1966.942627 297.641235,1947.053589 &#xA;    C297.826782,1934.509277 297.836090,1921.956787 297.613678,1909.413452 &#xA;    C297.427155,1898.892822 296.790588,1888.380005 296.338104,1877.113037 &#xA;    C296.311127,1874.366821 296.299347,1872.371216 296.668549,1869.641357 &#xA;    C296.770477,1861.153564 296.491394,1853.400269 296.252258,1844.918213 &#xA;    C296.265503,1842.244019 296.238800,1840.298584 296.619385,1837.611816 &#xA;    C297.238708,1822.017822 297.495483,1807.165283 297.596375,1792.311890 &#xA;    C297.606934,1790.760132 296.695557,1789.202026 296.252167,1787.317383 &#xA;    C296.292419,1786.987793 296.241333,1786.325928 296.596130,1785.716309 &#xA;    C296.707520,1781.954468 296.464081,1778.802124 296.255035,1775.327881 &#xA;    C296.289429,1775.005981 296.223083,1774.361816 296.519104,1773.924072 &#xA;    C296.615845,1772.221191 296.416534,1770.955933 296.448547,1768.920288 &#xA;    C296.972626,1766.868530 297.516388,1765.588013 297.520630,1764.305786 &#xA;    C297.587036,1744.210083 297.649353,1724.113892 297.498413,1704.019287 &#xA;    C297.482819,1701.943848 296.101349,1699.878662 295.353638,1697.808716 &#xA;    C295.265381,1697.004517 295.177124,1696.200317 295.732574,1694.433228 &#xA;    C296.769928,1687.571533 297.400269,1681.676636 297.495300,1675.773071 &#xA;    C297.605896,1668.902344 297.137054,1662.024292 297.114166,1655.148804 &#xA;    C297.049530,1635.712280 297.255005,1616.272461 296.926544,1596.841187 &#xA;    C296.865540,1593.230957 299.746552,1588.882690 295.353119,1585.800537 &#xA;    C295.265106,1585.004395 295.177094,1584.208374 295.826019,1582.284424 &#xA;    C296.877625,1580.219971 297.465118,1579.283813 297.466858,1578.346558 &#xA;    C297.505096,1557.769409 297.473938,1537.192139 297.466522,1516.614868 &#xA;    C297.463898,1509.363525 297.602173,1502.110229 297.480591,1494.861206 &#xA;    C297.108246,1472.663452 296.640991,1450.467285 296.623413,1427.554077 &#xA;    C297.291321,1418.991577 299.850159,1410.983887 295.397125,1403.468018 &#xA;    C295.294800,1402.722534 295.192444,1401.977173 295.432251,1400.797607 &#xA;    C295.774414,1400.363525 296.155823,1400.060669 296.605591,1399.381470 &#xA;    C296.776520,1389.685303 296.497681,1380.668213 296.253174,1371.325684 &#xA;    C296.287506,1371.000000 296.218994,1370.348633 296.628540,1369.611694 &#xA;    C296.744629,1358.560669 296.451202,1348.246704 295.972351,1337.776123 &#xA;    C295.786957,1337.619629 295.353485,1337.837769 295.353485,1337.837769 &#xA;z"/>
<path fill="url(#crimsonGradient)" opacity="1.000000" stroke="none" d="&#xA;M379.249451,237.115417 &#xA;    C376.573883,206.938690 371.757751,178.094116 361.745667,150.378326 &#xA;    C357.917816,139.781860 353.325409,129.386383 348.178497,119.362930 &#xA;    C343.139160,109.548805 344.821350,101.971581 352.383698,94.288216 &#xA;    C370.384247,75.999535 390.574249,61.241547 414.984894,52.665440 &#xA;    C448.537170,40.877625 440.471466,40.932480 471.918549,53.223782 &#xA;    C495.707367,62.521816 516.845398,76.089684 534.373413,95.172913 &#xA;    C541.102722,102.499298 541.890198,109.018478 537.535156,117.562866 &#xA;    C526.305969,139.594238 517.944336,162.705902 513.084412,187.006866 &#xA;    C507.469055,215.084991 504.314972,243.464081 503.068878,272.053375 &#xA;    C502.532837,284.352631 502.252991,296.665497 502.027557,308.975311 &#xA;    C501.386902,343.963226 503.261566,378.852631 507.038666,413.615448 &#xA;    C510.735840,447.643005 514.991638,481.609955 519.035828,515.599487 &#xA;    C519.349792,518.237793 519.744202,520.893738 520.426392,523.454895 &#xA;    C521.576843,527.774475 524.226685,530.247986 529.043823,530.134155 &#xA;    C536.369690,529.960938 543.701233,529.996521 551.030334,529.996094 &#xA;    C621.002869,529.992065 690.975830,530.118774 760.947266,529.848450 &#xA;    C769.486206,529.815491 774.630737,532.664490 777.992798,540.449890 &#xA;    C791.902527,572.659485 803.427856,605.511108 806.437439,640.788513 &#xA;    C806.719727,644.097046 806.923096,647.466125 806.627136,650.758911 &#xA;    C806.025635,657.451172 802.968445,659.451294 796.446838,657.267761 &#xA;    C792.053833,655.796875 787.844055,653.752380 783.610779,651.835327 &#xA;    C751.110229,637.116882 717.896179,624.508728 683.173279,615.888916 &#xA;    C644.087158,606.185852 604.915283,596.961792 565.033752,591.178894 &#xA;    C530.083984,586.111023 494.921600,584.386658 459.592316,583.793640 &#xA;    C403.513397,582.852417 347.852173,586.871765 292.663086,596.198181 &#xA;    C247.042389,603.907654 202.092682,615.048828 158.009552,629.130981 &#xA;    C141.606628,634.370850 126.125870,642.481018 110.180603,649.177490 &#xA;    C103.127945,652.139404 96.060425,655.118958 88.825211,657.577026 &#xA;    C82.500618,659.725708 79.894028,657.922424 80.127922,651.167908 &#xA;    C80.402992,643.224182 81.345245,635.267334 82.537384,627.397888 &#xA;    C86.908920,598.541199 96.576424,571.331177 108.731728,544.930420 &#xA;    C109.425560,543.423462 110.491959,542.080444 111.121010,540.552490 &#xA;    C114.518234,532.300537 120.799370,529.781616 129.424835,529.851196 &#xA;    C167.059586,530.154724 204.697617,530.058533 242.334457,530.096252 &#xA;    C278.312286,530.132263 314.290131,530.156982 350.267975,530.181580 &#xA;    C364.102356,530.191040 365.985107,528.642395 367.568146,514.607300 &#xA;    C370.771851,486.203796 374.008118,457.801331 376.852203,429.360535 &#xA;    C381.923798,378.644196 383.881348,327.799713 381.936920,276.847473 &#xA;    C381.442474,263.890320 380.296051,250.958069 379.249451,237.115417 &#xA;z"/>
<path fill="url(#crimsonGradient)" opacity="1.000000" stroke="none" d="&#xA;M1545.366333,1755.581543 &#xA;    C1529.214600,1807.824829 1513.432983,1859.350586 1497.426392,1910.806519 &#xA;    C1480.332764,1965.757568 1463.005371,2020.635864 1445.829346,2075.561279 &#xA;    C1441.758057,2088.580566 1437.813965,2101.640381 1433.938110,2114.719482 &#xA;    C1429.947632,2128.186035 1427.766846,2129.959229 1413.481323,2129.963379 &#xA;    C1324.848999,2129.989014 1236.216797,2129.976562 1147.584473,2129.980469 &#xA;    C990.976257,2129.987549 834.367981,2129.998047 677.759766,2130.005615 &#xA;    C673.427917,2130.005615 669.088013,2130.156982 664.766113,2129.945557 &#xA;    C657.528137,2129.591553 654.752502,2126.734619 654.192566,2119.447998 &#xA;    C654.116333,2118.455811 654.193787,2117.452148 654.196655,2116.453613 &#xA;    C654.277405,2088.490234 654.348572,2060.527100 654.456848,2032.563843 &#xA;    C654.464600,2030.571533 654.862305,2028.580933 654.873352,2026.588501 &#xA;    C654.902222,2021.388672 658.257019,2019.516602 662.625366,2019.375244 &#xA;    C666.231628,2019.258301 669.972534,2019.576538 673.471375,2020.440674 &#xA;    C707.670288,2028.886353 742.434875,2030.327271 777.492676,2030.206055 &#xA;    C884.767151,2029.834961 992.046692,2030.497192 1099.317627,2029.773193 &#xA;    C1146.683228,2029.453491 1193.571899,2023.877930 1238.763794,2008.278442 &#xA;    C1286.381104,1991.841675 1326.860474,1964.527344 1360.354370,1927.179199 &#xA;    C1390.165161,1893.937744 1418.145874,1859.099976 1439.814331,1819.880249 &#xA;    C1453.794434,1794.576538 1466.397095,1768.473755 1478.673096,1742.286499 &#xA;    C1483.373413,1732.259766 1488.957397,1726.946289 1500.532959,1727.702148 &#xA;    C1514.135254,1728.590576 1527.824219,1728.078613 1541.470825,1728.389038 &#xA;    C1550.317505,1728.590210 1552.531982,1731.687012 1550.241577,1740.598267 &#xA;    C1549.002441,1745.419312 1547.190918,1750.093018 1545.366333,1755.581543 &#xA;z"/>
<path fill="url(#crimsonGradient)" opacity="1.000000" stroke="none" d="&#xA;M1270.107910,1553.710449 &#xA;    C1271.128662,1569.007202 1269.693726,1572.461670 1252.663818,1572.018555 &#xA;    C1242.677368,1571.758423 1232.682739,1571.785645 1222.691650,1571.736084 &#xA;    C1213.182373,1571.688843 1210.331055,1569.542725 1208.984619,1559.774170 &#xA;    C1207.442505,1548.586182 1207.265747,1537.167480 1205.134155,1526.111572 &#xA;    C1198.954590,1494.060181 1191.451416,1462.385010 1175.828735,1433.231079 &#xA;    C1160.760010,1405.110962 1136.834473,1387.283936 1108.351807,1375.106934 &#xA;    C1080.878052,1363.361328 1051.795288,1357.579712 1022.045044,1356.151245 &#xA;    C994.132141,1354.810669 966.162781,1354.177612 938.215820,1354.099731 &#xA;    C849.236816,1353.851929 760.256714,1354.008423 671.277039,1354.005737 &#xA;    C668.611328,1354.005615 665.919617,1354.203979 663.285339,1353.907104 &#xA;    C657.717102,1353.280029 654.563293,1349.836914 654.035767,1344.019409 &#xA;    C653.855835,1342.035767 653.992615,1340.022949 653.992554,1338.023438 &#xA;    C653.991516,1314.711548 653.967651,1291.399658 654.002563,1268.087769 &#xA;    C654.019104,1257.014893 656.326111,1254.511230 667.390564,1254.485962 &#xA;    C711.365906,1254.385376 755.341492,1254.434570 799.317017,1254.410767 &#xA;    C864.934998,1254.375244 930.554199,1254.550903 996.170532,1254.202759 &#xA;    C1041.348022,1253.962891 1084.850464,1245.246460 1125.804077,1225.659180 &#xA;    C1148.409912,1214.847168 1165.565918,1198.057007 1177.488403,1176.028076 &#xA;    C1196.373779,1141.134033 1204.713257,1103.329956 1208.046387,1064.172974 &#xA;    C1208.554688,1058.200195 1208.848267,1052.203125 1209.560791,1046.255493 &#xA;    C1210.555176,1037.954102 1212.847534,1035.785645 1221.011597,1035.703857 &#xA;    C1233.654663,1035.576904 1246.302490,1035.624512 1258.945068,1035.812134 &#xA;    C1268.498413,1035.953857 1270.354492,1038.040649 1270.303589,1047.889038 &#xA;    C1270.264038,1055.551392 1270.020386,1063.213013 1270.020386,1070.875000 &#xA;    C1270.021118,1231.500366 1270.043579,1392.125732 1270.107910,1553.710449 &#xA;z"/>
<path fill="url(#crimsonGradient)" opacity="1.000000" stroke="none" d="&#xA;M1345.722900,786.416504 &#xA;    C1334.996094,756.715820 1321.685181,729.273254 1302.371460,705.034851 &#xA;    C1277.767700,674.157410 1246.663818,653.099060 1208.575806,642.299622 &#xA;    C1162.096436,629.121094 1114.762939,623.906921 1066.480835,624.563782 &#xA;    C1005.885803,625.388245 945.274353,625.006104 884.670044,625.145813 &#xA;    C884.336975,625.146545 884.003601,625.175598 883.670959,625.166931 &#xA;    C869.892334,624.808960 866.105896,626.597412 862.981689,608.481812 &#xA;    C859.275940,586.994385 851.419128,566.222046 845.336365,545.146973 &#xA;    C844.875854,543.551453 844.076172,542.048401 843.674255,540.442261 &#xA;    C842.097656,534.142090 844.214722,530.968933 850.709351,530.107605 &#xA;    C853.003662,529.803223 855.366577,529.995972 857.698181,529.995911 &#xA;    C1036.905273,529.992737 1216.112305,529.992859 1395.319336,529.993652 &#xA;    C1397.318115,529.993652 1399.335327,529.834900 1401.312378,530.045471 &#xA;    C1407.349487,530.688477 1409.235718,532.750610 1409.766113,540.197449 &#xA;    C1410.664307,552.806702 1411.181885,565.442688 1412.021851,578.056580 &#xA;    C1414.076050,608.907654 1416.102661,639.761292 1418.365479,670.597412 &#xA;    C1420.774902,703.431702 1423.512573,736.241760 1425.975220,769.072327 &#xA;    C1427.691895,791.956055 1429.386230,814.844910 1430.709595,837.753479 &#xA;    C1431.553467,852.363708 1431.935303,867.011719 1432.079956,881.647217 &#xA;    C1432.178467,891.621521 1429.640991,893.878418 1419.614990,893.968140 &#xA;    C1407.622681,894.075500 1395.628418,894.051147 1383.635498,893.991272 &#xA;    C1374.307373,893.944641 1372.833496,892.719238 1370.734985,883.716736 &#xA;    C1365.829956,862.673706 1361.179932,841.567200 1355.944824,820.606750 &#xA;    C1353.128662,809.331299 1349.318115,798.304260 1345.722900,786.416504 &#xA;z"/>
<path fill="url(#crimsonGradient)" opacity="1.000000" stroke="none" d="&#xA;M180.800827,2063.167480 &#xA;    C197.544128,2057.780029 213.499466,2052.640625 230.747467,2047.084839 &#xA;    C231.279480,2052.102295 231.921570,2055.587891 231.974045,2059.082275 &#xA;    C232.254028,2077.725098 232.387436,2096.369873 232.567825,2115.014160 &#xA;    C232.577499,2116.013184 232.587112,2117.014160 232.539978,2118.011475 &#xA;    C232.036896,2128.658691 229.914108,2130.931641 219.372299,2131.011719 &#xA;    C206.387863,2131.110596 193.399307,2130.986328 180.415421,2130.778809 &#xA;    C148.125748,2130.262695 115.837685,2129.645508 83.549004,2129.067871 &#xA;    C81.219017,2129.026123 78.866600,2129.162598 76.564156,2128.886475 &#xA;    C72.046127,2128.344971 69.060478,2125.894043 69.015274,2121.131592 &#xA;    C68.888840,2107.812256 68.754173,2094.486084 69.056740,2081.172363 &#xA;    C69.181602,2075.678467 72.250572,2072.784668 77.856964,2072.180664 &#xA;    C82.139862,2071.718994 86.506477,2072.081055 90.833176,2071.970947 &#xA;    C120.759315,2071.208496 150.727234,2070.860596 180.800827,2063.167480 &#xA;z"/>
<path fill="url(#crimsonGradient)" opacity="1.000000" stroke="none" d="&#xA;M296.593414,938.006714 &#xA;    C296.929077,941.625488 297.550323,945.243774 297.556702,948.863098 &#xA;    C297.628571,989.734009 297.607178,1030.605103 297.608795,1071.476074 &#xA;    C297.610199,1107.626221 297.696655,1143.776611 297.579346,1179.926392 &#xA;    C297.496582,1205.434082 297.140717,1230.940796 296.895660,1256.447998 &#xA;    C296.838715,1262.373901 296.736450,1268.299316 296.370880,1275.652954 &#xA;    C295.742767,1279.283203 295.398865,1281.485352 295.054962,1283.687622 &#xA;    C294.864288,1282.042236 294.506592,1280.396851 294.506714,1278.751465 &#xA;    C294.516754,1165.782837 294.555450,1052.814209 295.073059,938.928467 &#xA;    C295.554413,938.011230 296.073883,938.003418 296.073883,938.003418 &#xA;    C296.073883,938.003418 296.593414,938.006714 296.593414,938.006714 &#xA;z"/>
<path fill="url(#crimsonGradient)" opacity="1.000000" stroke="none" d="&#xA;M296.353302,1877.863770 &#xA;    C296.790588,1888.380005 297.427155,1898.892822 297.613678,1909.413452 &#xA;    C297.836090,1921.956787 297.826782,1934.509277 297.641235,1947.053589 &#xA;    C297.347076,1966.942627 296.823639,1986.828125 296.395660,2006.715210 &#xA;    C296.381348,2007.380249 296.331360,2008.044922 296.329803,2008.709839 &#xA;    C296.304718,2019.278687 296.265411,2029.847534 296.267242,2040.416382 &#xA;    C296.274750,2083.626709 296.299683,2126.836914 296.300995,2170.047119 &#xA;    C296.301056,2173.039795 296.160583,2176.032471 295.791931,2180.009277 &#xA;    C295.164398,2178.729492 294.538391,2176.465088 294.538269,2174.200928 &#xA;    C294.533813,2076.088135 294.584839,1977.975464 295.169128,1878.920166 &#xA;    C295.709137,1877.977539 296.353302,1877.863770 296.353302,1877.863770 &#xA;z"/>
<path fill="url(#crimsonGradient)" opacity="1.000000" stroke="none" d="&#xA;M413.371277,1239.132690 &#xA;    C412.179962,1232.932129 411.168060,1225.846924 410.433838,1218.733154 &#xA;    C410.093658,1215.436646 410.307495,1212.083984 410.247650,1208.757202 &#xA;    C409.542389,1169.548584 409.102356,1130.332520 408.029724,1091.133789 &#xA;    C407.313446,1064.958862 405.619507,1038.811523 404.552002,1012.644226 &#xA;    C404.365417,1008.070496 405.115906,1003.458557 406.040344,998.317261 &#xA;    C407.206055,1009.700928 407.970093,1021.626160 408.283661,1033.563232 &#xA;    C409.079041,1063.846436 409.572937,1094.137573 410.372009,1124.420654 &#xA;    C411.373169,1162.361694 412.558441,1200.298096 413.371277,1239.132690 &#xA;z"/>
<path fill="url(#crimsonGradient)" opacity="1.000000" stroke="none" d="&#xA;M347.170959,647.932495 &#xA;    C340.073273,649.947632 332.144623,651.991455 324.122986,653.559509 &#xA;    C318.276367,654.702454 312.245209,654.911499 306.407959,656.090027 &#xA;    C298.954224,657.594849 297.028320,661.008240 297.049988,668.936951 &#xA;    C297.143616,703.165222 297.022156,737.393921 297.023499,771.622498 &#xA;    C297.023865,781.210083 297.176331,790.797729 296.786499,801.164612 &#xA;    C295.898041,802.032654 295.477814,802.063354 295.053284,802.036072 &#xA;    C294.805389,784.428345 294.418518,766.821167 294.342072,749.212708 &#xA;    C294.226593,722.606934 294.362732,696.000061 294.321228,669.393799 &#xA;    C294.301361,656.671814 294.911438,655.466797 307.871521,653.224548 &#xA;    C320.614899,651.019775 333.485413,649.549744 347.170959,647.932495 &#xA;z"/>
<path fill="url(#crimsonGradient)" opacity="1.000000" stroke="none" d="&#xA;M402.971313,827.427185 &#xA;    C401.825104,825.469666 400.333496,822.777771 400.272095,820.053650 &#xA;    C399.445282,783.354553 398.808197,746.651123 398.144592,709.948425 &#xA;    C397.812531,691.581360 397.575745,673.212341 397.179779,654.846741 &#xA;    C397.063446,649.451416 394.100555,646.218079 388.509460,645.902832 &#xA;    C383.253052,645.606445 377.951874,646.104553 372.218445,645.714478 &#xA;    C377.608887,644.315796 383.429413,643.004211 389.299652,642.720154 &#xA;    C395.402191,642.424744 399.143524,646.040649 399.459717,652.437378 &#xA;    C400.016876,663.709290 400.062592,675.006714 400.303711,686.293945 &#xA;    C401.303223,733.088440 402.295715,779.883179 402.971313,827.427185 &#xA;z"/>
<path fill="url(#crimsonGradient)" opacity="1.000000" stroke="none" d="&#xA;M419.010529,1459.374146 &#xA;    C417.902557,1456.712891 416.557190,1453.320923 416.491760,1449.904419 &#xA;    C416.059509,1427.336548 416.212280,1404.754639 415.574402,1382.194336 &#xA;    C414.837219,1356.122192 413.196899,1330.075317 412.489624,1304.002808 &#xA;    C411.959930,1284.478027 412.286652,1264.929810 412.687683,1244.713623 &#xA;    C413.477966,1246.640991 414.035706,1249.240356 414.112549,1251.853882 &#xA;    C414.862976,1277.375732 415.522644,1302.900146 416.228485,1328.423218 &#xA;    C417.318726,1367.846924 418.438873,1407.269531 419.502808,1446.693848 &#xA;    C419.610107,1450.669067 419.418213,1454.652466 419.010529,1459.374146 &#xA;z"/>
<path fill="url(#crimsonGradient)" opacity="1.000000" stroke="none" d="&#xA;M296.210693,1428.270508 &#xA;    C296.640991,1450.467285 297.108246,1472.663452 297.480591,1494.861206 &#xA;    C297.602173,1502.110229 297.463898,1509.363525 297.466522,1516.614868 &#xA;    C297.473938,1537.192139 297.505096,1557.769409 297.466858,1578.346558 &#xA;    C297.465118,1579.283813 296.877625,1580.219971 295.959045,1581.694824 &#xA;    C295.061981,1580.297363 294.513245,1578.361450 294.513000,1576.425659 &#xA;    C294.506622,1523.657593 294.556213,1470.889404 295.161194,1417.883911 &#xA;    C295.887573,1421.187866 296.049133,1424.729126 296.210693,1428.270508 &#xA;z"/>
<path fill="url(#crimsonGradient)" opacity="1.000000" stroke="none" d="&#xA;M294.998199,1586.552490 &#xA;    C299.746552,1588.882690 296.865540,1593.230957 296.926544,1596.841187 &#xA;    C297.255005,1616.272461 297.049530,1635.712280 297.114166,1655.148804 &#xA;    C297.137054,1662.024292 297.605896,1668.902344 297.495300,1675.773071 &#xA;    C297.400269,1681.676636 296.769928,1687.571533 295.865173,1693.837402 &#xA;    C295.064606,1692.606934 294.522675,1691.009277 294.522858,1689.411743 &#xA;    C294.526337,1655.375977 294.590759,1621.340210 294.998199,1586.552490 &#xA;z"/>
<path fill="url(#crimsonGradient)" opacity="1.000000" stroke="none" d="&#xA;M296.937805,937.118103 &#xA;    C296.593414,938.006714 296.073883,938.003418 296.073883,938.003418 &#xA;    C296.073883,938.003418 295.554413,938.011230 295.287659,938.017456 &#xA;    C294.837799,921.489380 294.567749,904.955566 294.496338,888.420837 &#xA;    C294.426300,872.205566 294.558319,855.989502 295.153076,838.866089 &#xA;    C296.095886,838.000732 296.481445,838.073730 296.861145,838.177490 &#xA;    C297.108704,841.459412 297.575104,844.741760 297.569702,848.023254 &#xA;    C297.521088,877.425415 297.389404,906.827454 296.937805,937.118103 &#xA;z"/>
<path fill="url(#crimsonGradient)" opacity="1.000000" stroke="none" d="&#xA;M489.094971,646.114807 &#xA;    C489.694946,659.232788 489.960602,672.719666 489.400269,686.172058 &#xA;    C488.608856,705.173462 487.206787,724.149475 485.731171,743.983398 &#xA;    C485.516663,735.244202 485.632690,725.657959 485.757599,716.071777 &#xA;    C486.000427,697.437195 486.138214,678.800110 486.572327,660.169922 &#xA;    C486.679047,655.591064 487.759277,651.034851 489.094971,646.114807 &#xA;z"/>
<path fill="url(#crimsonGradient)" opacity="1.000000" stroke="none" d="&#xA;M296.223083,1774.361816 &#xA;    C296.223083,1774.361816 296.289429,1775.005981 296.185242,1775.867920 &#xA;    C295.737701,1777.725220 295.394318,1778.720581 295.050964,1779.716064 &#xA;    C294.914764,1752.914795 294.778625,1726.113403 294.998047,1698.560425 &#xA;    C296.101349,1699.878662 297.482819,1701.943848 297.498413,1704.019287 &#xA;    C297.649353,1724.113892 297.587036,1744.210083 297.520630,1764.305786 &#xA;    C297.516388,1765.588013 296.972626,1766.868530 296.386749,1769.698486 &#xA;    C296.136810,1772.285522 296.179962,1773.323608 296.223083,1774.361816 &#xA;z"/>
<path fill="url(#crimsonGradient)" opacity="1.000000" stroke="none" d="&#xA;M296.212128,1838.353149 &#xA;    C296.238800,1840.298584 296.265503,1842.244019 296.186432,1845.806519 &#xA;    C295.737061,1852.839966 295.393463,1858.256470 295.049835,1863.672852 &#xA;    C294.898834,1837.788086 294.747803,1811.903320 295.101257,1785.422241 &#xA;    C295.884155,1785.297729 296.096008,1785.797729 296.241333,1786.325928 &#xA;    C296.241333,1786.325928 296.292419,1786.987793 296.184143,1788.286621 &#xA;    C296.121277,1805.841431 296.166718,1822.097290 296.212128,1838.353149 &#xA;z"/>
<path fill="url(#crimsonGradient)" opacity="1.000000" stroke="none" d="&#xA;M405.001099,907.452454 &#xA;    C403.921265,906.796753 402.582825,905.398071 402.562897,903.980774 &#xA;    C402.363861,889.808472 402.381866,875.633118 402.775330,860.785400 &#xA;    C403.926178,875.641785 404.640320,891.171265 405.001099,907.452454 &#xA;z"/>
<path fill="url(#crimsonGradient)" opacity="1.000000" stroke="none" d="&#xA;M296.218994,1370.348633 &#xA;    C296.218994,1370.348633 296.287506,1371.000000 296.183594,1372.286743 &#xA;    C296.105072,1382.402588 296.130463,1391.231567 296.155823,1400.060669 &#xA;    C296.155823,1400.060669 295.774414,1400.363525 295.562622,1400.243652 &#xA;    C295.060272,1390.850708 294.616791,1381.579346 294.518707,1372.304321 &#xA;    C294.402527,1361.313599 294.583984,1350.319702 294.994934,1338.582520 &#xA;    C295.353485,1337.837769 295.786957,1337.619629 295.923340,1338.713501 &#xA;    C296.112793,1349.987793 296.165894,1360.168213 296.218994,1370.348633 &#xA;z"/>
<path fill="url(#crimsonGradient)" opacity="1.000000" stroke="none" d="&#xA;M406.989563,989.342896 &#xA;    C405.873810,988.003174 404.476532,985.958130 404.437286,983.887207 &#xA;    C404.293793,976.319153 404.602966,968.742554 405.260254,960.513550 &#xA;    C406.296387,969.447266 406.813843,979.036499 406.989563,989.342896 &#xA;z"/>
<path fill="url(#crimsonGradient)" opacity="1.000000" stroke="none" d="&#xA;M296.225555,1292.344360 &#xA;    C296.225555,1292.344360 296.289551,1292.998169 296.184326,1294.292725 &#xA;    C296.105408,1307.747314 296.131653,1319.907349 296.157898,1332.067383 &#xA;    C296.157928,1332.067383 295.779144,1332.372437 295.566406,1332.255127 &#xA;    C295.099487,1318.116699 294.845276,1304.095703 295.122192,1289.627197 &#xA;    C295.844086,1290.234741 296.034821,1291.289551 296.225555,1292.344360 &#xA;z"/>
<path fill="url(#crimsonGradient)" opacity="1.000000" stroke="none" d="&#xA;M295.108948,2197.820068 &#xA;    C295.657318,2211.020020 295.816071,2225.025879 295.685303,2239.925293 &#xA;    C295.170288,2226.754639 294.944824,2212.690430 295.108948,2197.820068 &#xA;z"/>
<path fill="url(#crimsonGradient)" opacity="1.000000" stroke="none" d="&#xA;M517.399231,644.482910 &#xA;    C513.359314,645.087769 508.549377,645.265808 503.738739,645.422791 &#xA;    C499.608124,645.557556 495.476715,645.668335 490.549500,645.798462 &#xA;    C492.635498,641.484070 497.097015,642.502747 501.139252,642.674866 &#xA;    C506.312561,642.895142 511.466583,643.568726 517.399231,644.482910 &#xA;z"/>
<path fill="url(#crimsonGradient)" opacity="1.000000" stroke="none" d="&#xA;M403.349396,851.410400 &#xA;    C398.668823,845.962219 401.082916,839.165039 402.122742,832.174561 &#xA;    C402.990021,838.080444 403.326233,844.318848 403.349396,851.410400 &#xA;z"/>
<path fill="url(#crimsonGradient)" opacity="1.000000" stroke="none" d="&#xA;M422.001495,1575.059082 &#xA;    C421.234406,1571.453613 420.370728,1566.951538 420.233551,1562.427368 &#xA;    C420.022491,1555.466797 420.310089,1548.490967 420.795654,1540.836670 &#xA;    C421.546906,1551.485352 421.888641,1562.818848 422.001495,1575.059082 &#xA;z"/>
<path fill="url(#crimsonGradient)" opacity="1.000000" stroke="none" d="&#xA;M484.836121,778.304565 &#xA;    C485.250000,787.983765 485.260620,798.396423 484.747864,809.460205 &#xA;    C484.293976,799.753540 484.363434,789.395813 484.836121,778.304565 &#xA;z"/>
<path fill="url(#crimsonGradient)" opacity="1.000000" stroke="none" d="&#xA;M296.623413,1427.554077 &#xA;    C296.049133,1424.729126 295.887573,1421.187866 295.391479,1416.998413 &#xA;    C294.929230,1415.340454 294.801483,1414.330688 295.042023,1412.398560 &#xA;    C295.624542,1410.962524 295.507721,1410.527100 295.059875,1410.170044 &#xA;    C294.931610,1409.192749 294.803375,1408.215576 295.085632,1406.170166 &#xA;    C295.679901,1404.526001 295.579498,1404.004639 295.194946,1403.537720 &#xA;    C295.194946,1403.537720 295.278625,1403.451538 295.337891,1403.459717 &#xA;    C299.850159,1410.983887 297.291321,1418.991577 296.623413,1427.554077 &#xA;z"/>
<path fill="url(#crimsonGradient)" opacity="1.000000" stroke="none" d="&#xA;M295.062805,2258.395020 &#xA;    C297.536499,2263.550537 299.688507,2269.266357 301.673492,2275.772461 &#xA;    C299.251343,2270.693604 296.996216,2264.824463 295.062805,2258.395020 &#xA;z"/>
<path fill="url(#crimsonGradient)" opacity="1.000000" stroke="none" d="&#xA;M296.940582,810.192505 &#xA;    C297.067200,815.460571 297.193817,820.728699 296.664490,826.871704 &#xA;    C296.008514,827.746582 295.106384,827.653748 295.106384,827.653748 &#xA;    C294.917236,822.289062 294.728058,816.924438 295.102539,810.763550 &#xA;    C296.095337,810.018005 296.520111,810.093079 296.940582,810.192505 &#xA;z"/>
<path fill="url(#crimsonGradient)" opacity="1.000000" stroke="none" d="&#xA;M294.858826,1864.416016 &#xA;    C295.393463,1858.256470 295.737061,1852.839966 296.146484,1846.535156 &#xA;    C296.491394,1853.400269 296.770477,1861.153564 296.517822,1869.241211 &#xA;    C295.791687,1869.031738 295.480804,1868.565918 295.053375,1868.177856 &#xA;    C294.924835,1867.171631 294.796326,1866.165283 294.858826,1864.416016 &#xA;z"/>
<path fill="url(#crimsonGradient)" opacity="1.000000" stroke="none" d="&#xA;M405.979309,951.085815 &#xA;    C405.177429,944.881409 404.582336,937.797363 404.312103,930.003906 &#xA;    C405.153320,936.265076 405.669708,943.235596 405.979309,951.085815 &#xA;z"/>
<path fill="url(#crimsonGradient)" opacity="1.000000" stroke="none" d="&#xA;M367.450928,645.313110 &#xA;    C363.579559,646.523193 359.137207,647.442993 354.256226,647.870239 &#xA;    C358.171661,646.592712 362.525818,645.807800 367.450928,645.313110 &#xA;z"/>
<path fill="url(#crimsonGradient)" opacity="1.000000" stroke="none" d="&#xA;M294.901794,828.363403 &#xA;    C295.106384,827.653748 296.008514,827.746582 296.451172,827.722839 &#xA;    C297.103973,830.636047 297.314148,833.572998 297.192749,837.343750 &#xA;    C296.481445,838.073730 296.095886,838.000732 295.401367,837.958252 &#xA;    C294.964569,834.996277 294.830902,832.034668 294.901794,828.363403 &#xA;z"/>
<path fill="url(#crimsonGradient)" opacity="1.000000" stroke="none" d="&#xA;M296.613281,1291.662476 &#xA;    C296.034821,1291.289551 295.844086,1290.234741 295.354492,1288.739014 &#xA;    C294.927643,1287.268311 294.799591,1286.238525 294.863281,1284.448242 &#xA;    C295.398865,1281.485352 295.742767,1279.283203 296.150604,1276.388672 &#xA;    C296.476685,1280.791260 296.738831,1285.885864 296.613281,1291.662476 &#xA;z"/>
<path fill="url(#crimsonGradient)" opacity="1.000000" stroke="none" d="&#xA;M297.248657,809.385376 &#xA;    C296.520111,810.093079 296.095337,810.018005 295.333984,809.964233 &#xA;    C294.883942,807.837341 294.766113,805.713501 294.850769,802.812866 &#xA;    C295.477814,802.063354 295.898041,802.032654 296.606445,801.878784 &#xA;    C297.118195,804.068481 297.337433,806.323364 297.248657,809.385376 &#xA;z"/>
<path fill="url(#crimsonGradient)" opacity="1.000000" stroke="none" d="&#xA;M296.596130,1785.716309 &#xA;    C296.096008,1785.797729 295.884155,1785.297729 295.329712,1784.528320 &#xA;    C294.924438,1783.222168 294.795227,1782.213623 294.858459,1780.460693 &#xA;    C295.394318,1778.720581 295.737701,1777.725220 296.150879,1776.189819 &#xA;    C296.464081,1778.802124 296.707520,1781.954468 296.596130,1785.716309 &#xA;z"/>
<path fill="url(#crimsonGradient)" opacity="1.000000" stroke="none" d="&#xA;M420.116272,1505.328125 &#xA;    C419.546173,1502.327881 419.192200,1498.720581 419.305603,1494.578857 &#xA;    C419.959473,1497.603271 420.145935,1501.162109 420.116272,1505.328125 &#xA;z"/>
<path fill="url(#crimsonGradient)" opacity="1.000000" stroke="none" d="&#xA;M443.589630,2210.156982 &#xA;    C444.156342,2214.165527 444.095673,2218.165283 443.517700,2222.999512 &#xA;    C443.000366,2223.833984 442.252991,2223.865723 442.252991,2223.865723 &#xA;    C442.019836,2219.868164 441.786682,2215.870850 441.630524,2211.020264 &#xA;    C442.125763,2210.161133 442.544037,2210.154785 443.589630,2210.156982 &#xA;z"/>
<path fill="url(#crimsonGradient)" opacity="1.000000" stroke="none" d="&#xA;M485.070374,747.777832 &#xA;    C485.617188,750.354248 485.818420,753.601624 485.691467,757.772095 &#xA;    C485.150452,755.279663 484.937592,751.864197 485.070374,747.777832 &#xA;z"/>
<path fill="url(#crimsonGradient)" opacity="1.000000" stroke="none" d="&#xA;M294.827209,1868.978760 &#xA;    C295.480804,1868.565918 295.791687,1869.031738 296.136841,1869.975464 &#xA;    C296.299347,1872.371216 296.311127,1874.366821 296.338104,1877.113037 &#xA;    C296.353302,1877.863770 295.709137,1877.977539 295.383789,1878.010620 &#xA;    C294.905975,1875.288940 294.753510,1872.534302 294.827209,1868.978760 &#xA;z"/>
<path fill="url(#crimsonGradient)" opacity="1.000000" stroke="none" d="&#xA;M295.087128,2183.784912 &#xA;    C295.639862,2186.397949 295.839111,2189.684082 295.739227,2193.925293 &#xA;    C295.204590,2191.406250 294.969116,2187.932129 295.087128,2183.784912 &#xA;z"/>
<path fill="url(#crimsonGradient)" opacity="1.000000" stroke="none" d="&#xA;M295.035095,2243.770996 &#xA;    C295.576813,2244.531006 295.772034,2245.792969 295.697388,2247.988281 &#xA;    C295.181183,2247.371826 294.934875,2245.822266 295.035095,2243.770996 &#xA;z"/>
<path fill="url(#crimsonGradient)" opacity="1.000000" stroke="none" d="&#xA;M525.302673,645.857666 &#xA;    C525.371155,646.102844 524.787292,646.357666 524.702759,646.193542 &#xA;    C524.618164,646.029419 524.734070,645.536865 524.734070,645.536865 &#xA;    C524.734070,645.536865 525.234192,645.612488 525.302673,645.857666 &#xA;z"/>
<path fill="url(#crimsonGradient)" opacity="1.000000" stroke="none" d="&#xA;M294.888733,1410.585449 &#xA;    C295.507721,1410.527100 295.624542,1410.962524 295.235107,1411.653809 &#xA;    C295.059906,1411.831299 294.717621,1411.000732 294.888733,1410.585449 &#xA;z"/>
<path fill="url(#crimsonGradient)" opacity="1.000000" stroke="none" d="&#xA;M295.103577,2251.483887 &#xA;    C295.571899,2251.697754 295.704407,2252.319824 295.620422,2253.872314 &#xA;    C295.191833,2253.832520 294.979797,2252.862549 295.103577,2251.483887 &#xA;z"/>
<path fill="url(#crimsonGradient)" opacity="1.000000" stroke="none" d="&#xA;M419.850220,1481.455444 &#xA;    C419.438507,1481.406860 419.194946,1480.884888 419.272339,1480.217285 &#xA;    C419.734985,1480.375122 419.876709,1480.678589 419.850220,1481.455444 &#xA;z"/>
<path fill="url(#crimsonGradient)" opacity="1.000000" stroke="none" d="&#xA;M294.943237,1403.875977 &#xA;    C295.579498,1404.004639 295.679901,1404.526001 295.276764,1405.449463 &#xA;    C294.639893,1405.337769 294.517944,1404.810181 294.943237,1403.875977 &#xA;z"/>
<path fill="url(#crimsonGradient)" opacity="1.000000" stroke="none" d="&#xA;M485.039642,765.737610 &#xA;    C485.473297,765.919067 485.608673,766.421631 485.532074,767.671082 &#xA;    C485.088806,767.919067 484.810669,767.434814 484.646362,766.914673 &#xA;    C484.567291,766.664307 484.702972,766.346130 485.039642,765.737610 &#xA;z"/>
<path fill="url(#crimsonGradient)" opacity="1.000000" stroke="none" d="&#xA;M404.959351,916.362061 &#xA;    C404.489594,916.156738 404.342194,915.547852 404.397186,914.018677 &#xA;    C404.826935,914.051819 405.054321,915.005249 404.959351,916.362061 &#xA;z"/>
<path fill="url(#crimsonGradient)" opacity="1.000000" stroke="none" d="&#xA;M296.619385,1837.611816 &#xA;    C296.166718,1822.097290 296.121277,1805.841431 296.143890,1788.616211 &#xA;    C296.695557,1789.202026 297.606934,1790.760132 297.596375,1792.311890 &#xA;    C297.495483,1807.165283 297.238708,1822.017822 296.619385,1837.611816 &#xA;z"/>
<path fill="url(#crimsonGradient)" opacity="1.000000" stroke="none" d="&#xA;M296.614716,1331.384033 &#xA;    C296.131653,1319.907349 296.105408,1307.747314 296.148926,1294.619263 &#xA;    C296.503021,1306.001099 296.787262,1318.350952 296.614716,1331.384033 &#xA;z"/>
<path fill="url(#crimsonGradient)" opacity="1.000000" stroke="none" d="&#xA;M296.628540,1369.611694 &#xA;    C296.165894,1360.168213 296.112793,1349.987793 296.108765,1338.869995 &#xA;    C296.451202,1348.246704 296.744629,1358.560669 296.628540,1369.611694 &#xA;z"/>
<path fill="url(#crimsonGradient)" opacity="1.000000" stroke="none" d="&#xA;M296.605591,1399.381470 &#xA;    C296.130463,1391.231567 296.105072,1382.402588 296.149231,1372.612305 &#xA;    C296.497681,1380.668213 296.776520,1389.685303 296.605591,1399.381470 &#xA;z"/>
<path fill="url(#crimsonGradient)" opacity="1.000000" stroke="none" d="&#xA;M442.048584,2224.739746 &#xA;    C442.252991,2223.865723 443.000366,2223.833984 443.373932,2223.849121 &#xA;    C443.747498,2229.278809 443.747498,2234.693359 443.747498,2240.107666 &#xA;    C443.113037,2240.121094 442.478607,2240.134521 441.844147,2240.147949 &#xA;    C441.844147,2235.303223 441.844147,2230.458496 442.048584,2224.739746 &#xA;z"/>
<path fill="url(#crimsonGradient)" opacity="1.000000" stroke="none" d="&#xA;M296.519104,1773.924072 &#xA;    C296.179962,1773.323608 296.136810,1772.285522 296.155457,1770.468994 &#xA;    C296.416534,1770.955933 296.615845,1772.221191 296.519104,1773.924072 &#xA;z"/>
</svg>